<?xml version="1.0" encoding="UTF-8"?>
<svg id="Layer_2" data-name="Layer 2" xmlns="http://www.w3.org/2000/svg" viewBox="0 0 100 100">
  <defs>
    <style>
      .cls-1 {
        fill: #231f20;
        stroke-width: 0px;
      }
    </style>
  </defs>
  <g id="Layer_1-2" data-name="Layer 1">
    <path class="cls-1" d="M91.79,0H8.21C3.68,0,0,3.68,0,8.21v83.57c0,4.54,3.68,8.21,8.21,8.21h83.57c4.54,0,8.21-3.68,8.21-8.21V8.21c0-4.54-3.68-8.21-8.21-8.21ZM85.77,57.72h-2.24c-1.7,0-3.07-1.38-3.07-3.07v-20.34c0-1.7-1.38-3.07-3.07-3.07h-7.26c-1.7,0-3.07,1.38-3.07,3.07v20.34c0,1.7-1.38,3.07-3.07,3.07h-19.9c-1.7,0-3.07-1.38-3.07-3.07V12.94c0-1.7,1.38-3.07,3.07-3.07h41.7c1.7,0,3.07,1.38,3.07,3.07v41.7c0,1.7-1.38,3.07-3.07,3.07Z"/>
  </g>
</svg>