<?xml version="1.0" encoding="utf-8"?>
<!-- Generator: Adobe Illustrator 28.1.0, SVG Export Plug-In . SVG Version: 6.00 Build 0)  -->
<svg version="1.1" id="Layer_1" xmlns="http://www.w3.org/2000/svg" xmlns:xlink="http://www.w3.org/1999/xlink" x="0px" y="0px"
	 viewBox="0 0 400 400" style="enable-background:new 0 0 400 400;" xml:space="preserve">
<style type="text/css">
	.st0{fill:#FFFFFF;}
	.st1{fill:#231F20;}
</style>
<path class="st0" d="M309.4,400H90.6C40.8,400,0,359.2,0,309.4V90.6C0,40.8,40.8,0,90.6,0h218.7C359.2,0,400,40.8,400,90.6v218.7
	C400,359.2,359.2,400,309.4,400"/>
<path class="st0" d="M329.6,97.5c0,20.9-17,37.9-37.9,37.9c-20.9,0-37.9-17-37.9-37.9c0-20.9,17-37.9,37.9-37.9
	C312.6,59.6,329.6,76.6,329.6,97.5"/>
<path class="st0" d="M191.9,130c-55.7,0-100.8,45.1-100.8,100.8c0,55.7,45.1,100.8,100.8,100.8s100.8-45.1,100.8-100.8
	C292.7,175.2,247.6,130,191.9,130 M191.9,186.8c24.3,0,44,19.7,44,44s-19.7,44-44,44c-24.3,0-44-19.7-44-44S167.6,186.8,191.9,186.8
	"/>
<path class="st1" d="M191.9,130c-55.7,0-100.8,45.1-100.8,100.8c0,55.7,45.1,100.8,100.8,100.8s100.8-45.1,100.8-100.8
	C292.7,175.2,247.6,130,191.9,130 M191.9,186.8c24.3,0,44,19.7,44,44s-19.7,44-44,44c-24.3,0-44-19.7-44-44S167.6,186.8,191.9,186.8
	"/>
<path class="st1" d="M329.6,97.5c0,20.9-17,37.9-37.9,37.9c-20.9,0-37.9-17-37.9-37.9c0-20.9,17-37.9,37.9-37.9
	C312.6,59.6,329.6,76.6,329.6,97.5"/>
</svg>
