<?xml version="1.0" encoding="utf-8"?>
<!-- Generator: Adobe Illustrator 28.1.0, SVG Export Plug-In . SVG Version: 6.00 Build 0)  -->
<svg version="1.1" id="Layer_2_00000133503056242588701370000004145271266701524649_"
	 xmlns="http://www.w3.org/2000/svg" xmlns:xlink="http://www.w3.org/1999/xlink" x="0px" y="0px" viewBox="0 0 300 300.2"
	 style="enable-background:new 0 0 300 300.2;" xml:space="preserve">
<style type="text/css">
	.st0{fill:#FFFFFF;}
</style>
<g id="Layer_1-2">
	<path class="st0" d="M28.1,0h243.7C287.5,0,300,12.5,300,28.1v244.1c0,15.5-12.5,28.1-28.1,28.1H28.1C12.5,300.2,0,287.8,0,272.1
		V28.1C0.1,12.5,12.5,0,28.1,0z"/>
	<path d="M171.1,130.1l85.1-96.9c4.9-5.5,0.9-14.4-6.5-14.4l0,0c-2.6,0-4.9,1-6.5,3l-75,85.3c-3.7,4.2-10.3,3.9-13.6-0.8L95.6,22.5
		c-1.6-2.3-4.3-3.7-7.2-3.7H31.5c-7,0-11.2,8-7.2,13.6l89,126.8c2.3,3.3,2.1,7.7-0.7,10.7L27.4,267c-4.9,5.5-0.9,14.4,6.5,14.4l0,0
		c2.6,0,4.9-1,6.5-3l79.8-90.8c3.7-4.2,10.3-3.9,13.6,0.8l62.6,89.3c1.6,2.3,4.3,3.7,7.2,3.7h73.6 M46.2,35.8h31.1
		c2.8,0,5.5,1.3,7.2,3.7l151.4,212c4.1,5.7,0,13.7-7.2,13.7H210"/>
</g>
</svg>
